# xmcd CD database file
#
# Track frame offsets:
#	150
#	20624
#	30945
#	45943
#	61870
#	81234
#	98013
#	115736
#	137199
#	151276
#	166324
#	181980
#	198486
#	213361
#	233157
#	251633
#	270005
#	284543
#
# Disc length: 3933 seconds
#
# Revision: 0
# Processed by: cddbd v1.4PL0 Copyright (c) Steve Scherf et al.
# Submitted via: Feurio! 1.65.5ß - http://www.feurio.com
#
DISCID=e70f5b12
DTITLE=Johnny Cash - Tribute to Johnny Cash (April 6, 1999 at the Hammerstien 
DTITLE=Ballroom, New York, NY)
DYEAR=1900
DGENRE=Country
TTITLE0=Willie Nelson and Sheryl Crow - Jackson
TTITLE1=Chris Isaak - Guess  Things Happen That Way
TTITLE2=Chris Isaak - Get Rhythm
TTITLE3=June Carter Cash - Ring Of Fire
TTITLE4=U2 - Don't Take Your Guns To Town
TTITLE5=Mavericks - Man in Black
TTITLE6=Kris Kristoferson - The Ballad Of Ira Hayes
TTITLE7=Trisha Yearwood and Kris Kristofferson - Sunday Morning Coming Down
TTITLE8=Brooks And Dunn - Ghost Riders In The Sky
TTITLE9=Lyle Lovett - Tennesee Flat Top Box
TTITLE10=Bruce Springsteen - Give My Love To Rose
TTITLE11=Sheryl Crow, Mary Chapin Carpenter, Emmylou Harris - Flesh And Blood
TTITLE12=Wyclef Jean - Delia's Gone
TTITLE13=Dave Matthews and Emmylou Harris - The Long Black Veil
TTITLE14=Marty Stuart and The Fairfield Four - Belshazar
TTITLE15=Bob Dylan - Train of Love
TTITLE16=Merle Haggard - Folsom Prison Blues
TTITLE17=The Who - I Walk The Line - Ring Of Fire Medley
EXTD=
EXTT0=
EXTT1=
EXTT2=
EXTT3=
EXTT4=
EXTT5=
EXTT6=
EXTT7=
EXTT8=
EXTT9=
EXTT10=
EXTT11=
EXTT12=
EXTT13=
EXTT14=
EXTT15=
EXTT16=
EXTT17=\r\n\r\n\r\n\r\n\r\n\r\n\r\n\r\n\r\n\r\n\r\n...don't be denied
PLAYORDER=
